<mxfile host="app.diagrams.net" agent="Mozilla/5.0 (Windows NT 10.0; Win64; x64) AppleWebKit/537.36 (KHTML, like Gecko) Chrome/137.0.0.0 Safari/537.36" version="27.1.6">
  <diagram name="Page-1" id="lSX4rm4bJcmFkEWdHd_N">
    <mxGraphModel dx="2041" dy="623" grid="1" gridSize="10" guides="1" tooltips="1" connect="1" arrows="1" fold="1" page="1" pageScale="1" pageWidth="827" pageHeight="1169" background="#ffffff" math="0" shadow="0">
      <root>
        <mxCell id="0" />
        <mxCell id="1" parent="0" />
        <mxCell id="z6RbsRIRo1tqUDwPA56i-4" value="AWS Cloud" style="points=[[0,0],[0.25,0],[0.5,0],[0.75,0],[1,0],[1,0.25],[1,0.5],[1,0.75],[1,1],[0.75,1],[0.5,1],[0.25,1],[0,1],[0,0.75],[0,0.5],[0,0.25]];outlineConnect=0;gradientColor=none;html=1;whiteSpace=wrap;fontSize=12;fontStyle=0;container=1;pointerEvents=0;collapsible=0;recursiveResize=0;shape=mxgraph.aws4.group;grIcon=mxgraph.aws4.group_aws_cloud_alt;strokeColor=#232F3E;fillColor=none;verticalAlign=top;align=left;spacingLeft=30;fontColor=#232F3E;dashed=0;" vertex="1" parent="1">
          <mxGeometry x="50" y="50" width="750" height="590" as="geometry" />
        </mxCell>
        <mxCell id="z6RbsRIRo1tqUDwPA56i-5" value="VPC" style="sketch=0;outlineConnect=0;gradientColor=none;html=1;whiteSpace=wrap;fontSize=12;fontStyle=0;shape=mxgraph.aws4.group;grIcon=mxgraph.aws4.group_vpc;strokeColor=#879196;fillColor=none;verticalAlign=top;align=left;spacingLeft=30;fontColor=#879196;dashed=0;" vertex="1" parent="z6RbsRIRo1tqUDwPA56i-4">
          <mxGeometry x="30" y="30" width="680" height="520" as="geometry" />
        </mxCell>
        <mxCell id="z6RbsRIRo1tqUDwPA56i-6" value="Security group" style="fillColor=none;strokeColor=#DD3522;verticalAlign=top;fontStyle=0;fontColor=#DD3522;whiteSpace=wrap;html=1;" vertex="1" parent="z6RbsRIRo1tqUDwPA56i-4">
          <mxGeometry x="80" y="70" width="600" height="410" as="geometry" />
        </mxCell>
        <mxCell id="z6RbsRIRo1tqUDwPA56i-7" value="EC2 instance contents" style="points=[[0,0],[0.25,0],[0.5,0],[0.75,0],[1,0],[1,0.25],[1,0.5],[1,0.75],[1,1],[0.75,1],[0.5,1],[0.25,1],[0,1],[0,0.75],[0,0.5],[0,0.25]];outlineConnect=0;gradientColor=none;html=1;whiteSpace=wrap;fontSize=12;fontStyle=0;container=1;pointerEvents=0;collapsible=0;recursiveResize=0;shape=mxgraph.aws4.group;grIcon=mxgraph.aws4.group_ec2_instance_contents;strokeColor=#D86613;fillColor=none;verticalAlign=top;align=left;spacingLeft=30;fontColor=#D86613;dashed=0;" vertex="1" parent="z6RbsRIRo1tqUDwPA56i-4">
          <mxGeometry x="110" y="110" width="520" height="320" as="geometry" />
        </mxCell>
        <mxCell id="z6RbsRIRo1tqUDwPA56i-9" value="" style="points=[];aspect=fixed;html=1;align=center;shadow=0;dashed=0;fillColor=#FF6A00;strokeColor=none;shape=mxgraph.alibaba_cloud.prometheus;" vertex="1" parent="z6RbsRIRo1tqUDwPA56i-7">
          <mxGeometry x="57.5" y="210" width="88.9" height="88.9" as="geometry" />
        </mxCell>
        <mxCell id="z6RbsRIRo1tqUDwPA56i-39" value="" style="html=1;align=center;verticalAlign=top;rounded=1;absoluteArcSize=1;arcSize=20;dashed=1;whiteSpace=wrap;" vertex="1" parent="z6RbsRIRo1tqUDwPA56i-7">
          <mxGeometry x="170" y="220" width="80" height="30" as="geometry" />
        </mxCell>
        <mxCell id="z6RbsRIRo1tqUDwPA56i-8" value="" style="image;sketch=0;aspect=fixed;html=1;points=[];align=center;fontSize=12;image=img/lib/mscae/Docker.svg;" vertex="1" parent="z6RbsRIRo1tqUDwPA56i-4">
          <mxGeometry x="390" y="221.8" width="166.34" height="136.4" as="geometry" />
        </mxCell>
        <mxCell id="z6RbsRIRo1tqUDwPA56i-10" value="" style="image;aspect=fixed;html=1;points=[];align=center;fontSize=12;image=img/lib/azure2/other/Grafana.svg;" vertex="1" parent="z6RbsRIRo1tqUDwPA56i-4">
          <mxGeometry x="167.5" y="140" width="90.15" height="70" as="geometry" />
        </mxCell>
        <mxCell id="z6RbsRIRo1tqUDwPA56i-13" style="edgeStyle=orthogonalEdgeStyle;rounded=0;orthogonalLoop=1;jettySize=auto;html=1;entryX=1.009;entryY=0.518;entryDx=0;entryDy=0;entryPerimeter=0;dashed=1;dashPattern=8 8;" edge="1" parent="z6RbsRIRo1tqUDwPA56i-4" source="z6RbsRIRo1tqUDwPA56i-8" target="z6RbsRIRo1tqUDwPA56i-10">
          <mxGeometry relative="1" as="geometry" />
        </mxCell>
        <mxCell id="z6RbsRIRo1tqUDwPA56i-14" style="edgeStyle=orthogonalEdgeStyle;rounded=0;orthogonalLoop=1;jettySize=auto;html=1;entryX=0.996;entryY=0.549;entryDx=0;entryDy=0;entryPerimeter=0;dashed=1;dashPattern=8 8;" edge="1" parent="z6RbsRIRo1tqUDwPA56i-4" source="z6RbsRIRo1tqUDwPA56i-8" target="z6RbsRIRo1tqUDwPA56i-9">
          <mxGeometry relative="1" as="geometry" />
        </mxCell>
        <mxCell id="z6RbsRIRo1tqUDwPA56i-38" value="&lt;b&gt;Node Exporter&lt;/b&gt;" style="edgeLabel;html=1;align=center;verticalAlign=middle;resizable=0;points=[];" vertex="1" connectable="0" parent="z6RbsRIRo1tqUDwPA56i-14">
          <mxGeometry x="0.1147" y="2" relative="1" as="geometry">
            <mxPoint x="-5" y="3" as="offset" />
          </mxGeometry>
        </mxCell>
        <mxCell id="z6RbsRIRo1tqUDwPA56i-15" style="edgeStyle=orthogonalEdgeStyle;rounded=0;orthogonalLoop=1;jettySize=auto;html=1;dashed=1;dashPattern=8 8;" edge="1" parent="z6RbsRIRo1tqUDwPA56i-4" source="z6RbsRIRo1tqUDwPA56i-16" target="z6RbsRIRo1tqUDwPA56i-10">
          <mxGeometry relative="1" as="geometry" />
        </mxCell>
        <mxCell id="z6RbsRIRo1tqUDwPA56i-16" value="Grafana" style="text;html=1;align=center;verticalAlign=middle;resizable=0;points=[];autosize=1;strokeColor=none;fillColor=none;" vertex="1" parent="z6RbsRIRo1tqUDwPA56i-4">
          <mxGeometry x="177.57999999999998" y="221.8" width="70" height="30" as="geometry" />
        </mxCell>
        <mxCell id="z6RbsRIRo1tqUDwPA56i-17" value="" style="edgeStyle=orthogonalEdgeStyle;rounded=0;orthogonalLoop=1;jettySize=auto;html=1;dashed=1;dashPattern=8 8;" edge="1" parent="z6RbsRIRo1tqUDwPA56i-4" source="z6RbsRIRo1tqUDwPA56i-9" target="z6RbsRIRo1tqUDwPA56i-16">
          <mxGeometry relative="1" as="geometry">
            <mxPoint x="262" y="370" as="sourcePoint" />
            <mxPoint x="263" y="260" as="targetPoint" />
          </mxGeometry>
        </mxCell>
        <mxCell id="z6RbsRIRo1tqUDwPA56i-18" value="Prometheus" style="text;html=1;align=center;verticalAlign=middle;resizable=0;points=[];autosize=1;strokeColor=none;fillColor=none;" vertex="1" parent="z6RbsRIRo1tqUDwPA56i-4">
          <mxGeometry x="167.65" y="400" width="90" height="30" as="geometry" />
        </mxCell>
        <mxCell id="z6RbsRIRo1tqUDwPA56i-19" value="" style="sketch=0;html=1;aspect=fixed;strokeColor=none;shadow=0;fillColor=#3B8DF1;verticalAlign=top;labelPosition=center;verticalLabelPosition=bottom;shape=mxgraph.gcp2.files" vertex="1" parent="z6RbsRIRo1tqUDwPA56i-4">
          <mxGeometry x="550" y="120" width="69.07" height="67" as="geometry" />
        </mxCell>
        <mxCell id="z6RbsRIRo1tqUDwPA56i-20" value="Prometheus&amp;nbsp;&lt;div&gt;&amp;amp;&amp;nbsp;&lt;div&gt;Grafana&amp;nbsp;&lt;/div&gt;&lt;div&gt;Yaml Files&lt;/div&gt;&lt;/div&gt;" style="text;html=1;align=center;verticalAlign=middle;resizable=0;points=[];autosize=1;strokeColor=none;fillColor=none;" vertex="1" parent="z6RbsRIRo1tqUDwPA56i-4">
          <mxGeometry x="466.34" y="120" width="90" height="70" as="geometry" />
        </mxCell>
        <mxCell id="z6RbsRIRo1tqUDwPA56i-25" value="" style="endArrow=classic;html=1;rounded=0;entryX=0.99;entryY=0.418;entryDx=0;entryDy=0;entryPerimeter=0;exitX=0.576;exitY=1.008;exitDx=0;exitDy=0;exitPerimeter=0;edgeStyle=orthogonalEdgeStyle;" edge="1" parent="z6RbsRIRo1tqUDwPA56i-4" source="z6RbsRIRo1tqUDwPA56i-19" target="z6RbsRIRo1tqUDwPA56i-8">
          <mxGeometry width="50" height="50" relative="1" as="geometry">
            <mxPoint x="340" y="270" as="sourcePoint" />
            <mxPoint x="390" y="220" as="targetPoint" />
            <Array as="points">
              <mxPoint x="590" y="279" />
            </Array>
          </mxGeometry>
        </mxCell>
        <mxCell id="z6RbsRIRo1tqUDwPA56i-35" value="" style="sketch=0;outlineConnect=0;fontColor=#232F3E;gradientColor=none;fillColor=#8C4FFF;strokeColor=none;dashed=0;verticalLabelPosition=bottom;verticalAlign=top;align=center;html=1;fontSize=12;fontStyle=0;aspect=fixed;pointerEvents=1;shape=mxgraph.aws4.internet_gateway;" vertex="1" parent="z6RbsRIRo1tqUDwPA56i-4">
          <mxGeometry x="332" y="10" width="48" height="48" as="geometry" />
        </mxCell>
        <mxCell id="z6RbsRIRo1tqUDwPA56i-26" value="" style="points=[[0.35,0,0],[0.98,0.51,0],[1,0.71,0],[0.67,1,0],[0,0.795,0],[0,0.65,0]];verticalLabelPosition=bottom;sketch=0;html=1;verticalAlign=top;aspect=fixed;align=center;pointerEvents=1;shape=mxgraph.cisco19.user;fillColor=#005073;strokeColor=none;" vertex="1" parent="1">
          <mxGeometry x="-150" y="160" width="120" height="120" as="geometry" />
        </mxCell>
        <mxCell id="z6RbsRIRo1tqUDwPA56i-27" style="edgeStyle=orthogonalEdgeStyle;rounded=0;orthogonalLoop=1;jettySize=auto;html=1;entryX=0.15;entryY=0.244;entryDx=0;entryDy=0;entryPerimeter=0;dashed=1;dashPattern=8 8;" edge="1" parent="1" source="z6RbsRIRo1tqUDwPA56i-26" target="z6RbsRIRo1tqUDwPA56i-6">
          <mxGeometry relative="1" as="geometry" />
        </mxCell>
        <mxCell id="z6RbsRIRo1tqUDwPA56i-28" value="Users" style="text;html=1;align=center;verticalAlign=middle;resizable=0;points=[];autosize=1;strokeColor=none;fillColor=none;" vertex="1" parent="1">
          <mxGeometry x="-140" y="290" width="50" height="30" as="geometry" />
        </mxCell>
        <mxCell id="z6RbsRIRo1tqUDwPA56i-29" value="" style="shape=image;html=1;verticalAlign=top;verticalLabelPosition=bottom;labelBackgroundColor=#ffffff;imageAspect=0;aspect=fixed;image=https://cdn2.iconfinder.com/data/icons/social-media-2285/512/1_Slack_colored_svg-128.png" vertex="1" parent="1">
          <mxGeometry x="-118" y="410" width="88" height="88" as="geometry" />
        </mxCell>
        <mxCell id="z6RbsRIRo1tqUDwPA56i-31" value="" style="endArrow=classic;html=1;rounded=0;exitX=0.028;exitY=0.571;exitDx=0;exitDy=0;exitPerimeter=0;entryX=0.974;entryY=0.426;entryDx=0;entryDy=0;entryPerimeter=0;edgeStyle=orthogonalEdgeStyle;dashed=1;dashPattern=8 8;" edge="1" parent="1" source="z6RbsRIRo1tqUDwPA56i-10" target="z6RbsRIRo1tqUDwPA56i-29">
          <mxGeometry width="50" height="50" relative="1" as="geometry">
            <mxPoint x="280" y="310" as="sourcePoint" />
            <mxPoint x="330" y="260" as="targetPoint" />
            <Array as="points">
              <mxPoint x="10" y="230" />
              <mxPoint x="10" y="448" />
            </Array>
          </mxGeometry>
        </mxCell>
        <mxCell id="z6RbsRIRo1tqUDwPA56i-34" value="Slack Notifications&amp;nbsp;&lt;div&gt;from Grafana&lt;/div&gt;" style="text;html=1;align=center;verticalAlign=middle;resizable=0;points=[];autosize=1;strokeColor=none;fillColor=none;" vertex="1" parent="1">
          <mxGeometry x="-135" y="505" width="120" height="40" as="geometry" />
        </mxCell>
      </root>
    </mxGraphModel>
  </diagram>
</mxfile>
